<svg xmlns="http://www.w3.org/2000/svg" viewBox="0 0 512 512">
  <path d="M173 100c8 6 13 16 18 24a1507 1507 0 0 0 42 74l2 5h2l1-2c3-8 9-14 17-18l2-1c9-4 21-3 30 0 7 3 13 8 18 14l1-2a40 40 0 0 1 58-16l13 14 1-2c7-10 14-16 25-20 12-2 23-2 33 5 13 10 20 28 27 43l1 2c18 41 32 85 31 130v3a180 180 0 0 1-4 39c-5 26-15 49-32 69l-1 2c-18 21-43 37-70 44l-3 1c-23 6-51 7-75 1l-2-1c-21-5-38-14-56-25l-16-9a1585 1585 0 0 1-51-30l-4-1-27-12c-10-4-19-8-24-18-5-11-5-22-1-33 6-13 15-21 29-26 15-6 32-1 48 3a2197 2197 0 0 0 32 9l-2-3-21-37-9-16-4-6-2-4-53-91a429320 429320 0 0 0-13-23l-2-3a6279 6279 0 0 1-12-22l-2-2-3-5c-6-10-8-22-5-34 3-10 10-19 19-24 15-7 31-5 44 4Zm-43 15c-5 6-6 11-6 18 1 9 6 16 10 24l2 3a2043 2043 0 0 0 33 57l10 16 3 7 2 3 23 39a107945 107945 0 0 0 29 51l7 12a2095 2095 0 0 0 15 25l2 3 1 9-4 4-12-2-2-1a1075 1075 0 0 1-40-11c-22-7-22-7-45-2-8 5-14 12-17 22 0 5 0 10 3 15 5 6 11 9 19 11a169 169 0 0 1 32 14 635 635 0 0 1 70 41c26 15 50 24 80 24h4c10 0 19-1 28-3h2c32-8 61-28 78-56 28-47 27-100 15-151-8-31-21-61-36-89l-2-3c-3-5-7-8-12-10-9-2-16-1-24 4-6 5-9 12-9 20 0 5 2 10 5 15l1 2 3 4c3 5 4 8 3 14l-6 3-4-1-3-4-1-2a899 899 0 0 1-22-38l-2-3c-4-7-9-10-16-12-8-1-14 1-20 5-6 5-9 12-10 20 1 7 4 13 8 20l2 3 9 15 1 3 4 6 1 2 2 3c2 3 2 6 1 10-3 3-4 2-8 3-5-2-7-7-9-11a1617 1617 0 0 1-27-47c-8-15-8-15-22-24-8-1-15 0-22 5-6 5-9 11-9 18 0 14 11 28 18 39l14 24 2 3 1 3 7 11c1 3 2 5 1 8l-4 4-7-1-6-9a22933 22933 0 0 0-101-176c-5-8-10-14-19-17-10-1-17 1-24 8Z"/>
  <path d="m184 4 4 1c16 5 31 13 44 24l3 3a133 133 0 0 1 45 107v3c0 4-1 7-3 10-3 3-5 3-10 2l-3-3v-12c0-35-10-66-34-91a121 121 0 0 0-56-30c-19-4-40-4-59 2l-2 1c-15 4-28 12-40 22l-2 2c-22 18-35 46-38 73-2 35 7 65 30 92l2 2c11 12 25 20 39 27l4 3-1 10c-4 2-8 1-12 0l-8-4-2-1c-31-17-53-45-63-78-10-34-6-72 11-103 12-20 28-36 47-48l2-1c11-7 22-11 34-14l4-1c20-5 44-4 64 2Z"/>
  <path d="M202 63c18 15 29 35 32 58 0 8 1 16-2 23-4 2-6 3-10 2-3-3-4-4-4-8v-3c0-20-7-39-20-54-8-7-17-12-27-16l-3-1c-17-5-36-2-52 5a71 71 0 0 0-28 98c8 12 18 21 30 27 3 2 5 4 6 7-1 4-1 5-4 8-5 2-8 0-12-2-8-4-15-10-21-16l-2-2a85 85 0 0 1 4-120l2-2c29-28 79-28 111-4Zm242 219c3 1 4 2 6 5l3 12 1 4c8 41 9 89-15 126-10 15-23 26-39 35l-2 1c-5 2-10 5-16 5-3-1-5-2-6-5-1-5-1-5 2-8s6-4 10-6c7-3 14-7 20-12l3-2c19-16 28-41 31-65v-2c3-24 0-47-5-70l-2-13c3-4 4-5 9-5Z"/>
</svg>
