<?xml version="1.0" encoding="utf-8"?>
<svg version="1.1" xmlns="http://www.w3.org/2000/svg" style="display: block;" viewBox="0 0 2048 2048" width="1024" height="1024">
  <path transform="translate(0,0)" d="M 0 0 L 2048 0 L 2048 2048 L 0 2048 L 0 0 z" style="fill: rgba(11, 11, 10, 0);"/>
  <path transform="translate(0,0)" fill="rgb(245,106,20)" d="M 1273.15 342.247 C 1337.95 348.181 1390.77 372.445 1432.92 423.139 C 1495.75 498.717 1512.07 608.937 1502.8 704.024 C 1498.51 748.081 1488.12 792.42 1474.11 834.363 C 1484.83 832.12 1495.16 832.006 1504.78 838.124 C 1516.88 845.821 1522.14 860.239 1524.86 873.674 C 1539.26 945.033 1511.74 1043.24 1471.42 1103.41 C 1457.37 1124.38 1441.06 1141.55 1415.33 1146.35 C 1407.54 1147.86 1399.57 1148.13 1391.71 1147.17 L 1391.14 1148.79 C 1385.58 1165.24 1382.35 1188.47 1377.97 1206.04 C 1364.18 1261.3 1347.67 1298.34 1317.47 1346.56 C 1319.52 1360.92 1318.21 1376.69 1318.27 1391.23 C 1318.34 1411.47 1319.09 1431.67 1319.66 1451.9 C 1324.11 1511.81 1346.36 1561.01 1391.99 1600.53 C 1399.93 1607.4 1408.43 1613.6 1416.86 1619.85 C 1329.97 1724.45 1214.88 1793.34 1078.5 1806.01 C 1063.71 1807.37 1048.86 1808.05 1034.01 1808.06 C 1033.99 1748.44 1034.77 1688.71 1033.91 1629.1 C 1033.1 1594.12 1034.18 1559.01 1033.78 1524.01 L 1033.96 1520.56 L 1034.07 1374.77 L 1033.95 1373.85 L 1033.98 1334.03 L 1033.98 1281.74 L 1034.01 1242.92 L 1033.91 1188.22 L 1033.99 1139.62 L 1033.91 521.006 C 1084.02 529.103 1142.63 520.431 1188.41 499.21 C 1200.99 493.378 1212.4 486.048 1223.85 478.301 C 1232.61 470.702 1240.65 462.915 1247.54 453.546 C 1270.88 421.831 1278.93 380.848 1273.15 342.247 z"/>
  <path transform="translate(0,0)" fill="rgb(78,187,78)" d="M 1223.85 478.301 C 1273.14 498.173 1307.8 532.733 1328.39 582.158 C 1328.46 582.319 1328.5 582.487 1328.56 582.652 C 1329.32 640.779 1323.96 698.097 1331.85 756.044 C 1333.32 766.785 1344.49 819.611 1341.55 825.949 C 1344.33 836.185 1346.46 846.386 1348.41 856.805 C 1356.09 874.552 1365.92 897.367 1367.3 916.597 C 1369.08 941.535 1347 1012.09 1336.84 1037.61 C 1329.27 1056.99 1319.97 1075.64 1309.07 1093.36 C 1288.83 1125.6 1264.5 1155.54 1249.07 1190.59 C 1232.83 1227.46 1227.43 1266.29 1220.17 1305.51 C 1210.87 1355.75 1192.23 1404.73 1160.7 1445.34 C 1144.21 1466.59 1123.24 1486.76 1098.64 1498.38 C 1097.45 1498.94 1096.34 1499.23 1095.08 1499.56 C 1074.34 1510.57 1056.29 1514.85 1033.96 1520.56 L 1034.07 1374.77 L 1033.95 1373.85 L 1033.98 1334.03 L 1033.98 1281.74 L 1034.01 1242.92 L 1033.91 1188.22 L 1033.99 1139.62 L 1033.91 521.006 C 1084.02 529.103 1142.63 520.431 1188.41 499.21 C 1200.99 493.378 1212.4 486.048 1223.85 478.301 z"/>
  <path transform="translate(0,0)" fill="rgb(254,189,33)" d="M 1223.85 478.301 C 1273.14 498.173 1307.8 532.733 1328.39 582.158 C 1328.46 582.319 1328.5 582.487 1328.56 582.652 C 1329.32 640.779 1323.96 698.097 1331.85 756.044 C 1333.32 766.785 1344.49 819.611 1341.55 825.949 C 1344.33 836.185 1346.46 846.386 1348.41 856.805 C 1344.86 855.405 1336.13 841.898 1332.27 837.942 C 1309.69 814.754 1274.37 802.763 1242.53 802.155 C 1197.9 797.986 1150.24 811.982 1115.62 840.797 C 1082.55 868.835 1061.97 908.858 1058.39 952.068 C 1058.04 956.018 1058.5 963.625 1056.01 966.533 L 1055.27 966.565 C 1056.25 988.782 1056.39 1010.43 1064.8 1031.38 C 1075.71 1058.56 1105.89 1075.71 1101.45 1108.4 C 1100.57 1114.85 1098.55 1121.6 1094.17 1126.58 C 1089.6 1131.78 1083.09 1133.73 1076.35 1134.11 C 1059.7 1135.04 1050.43 1131.49 1033.99 1139.62 L 1033.91 521.006 C 1084.02 529.103 1142.63 520.431 1188.41 499.21 C 1200.99 493.378 1212.4 486.048 1223.85 478.301 z"/>
  <path transform="translate(0,0)" fill="rgb(10,102,193)" d="M 1055.27 966.565 C 1052.65 922.957 1055.26 865.494 1071.77 824.908 C 1083.95 794.979 1105.97 771.734 1135.87 759.171 C 1178.31 741.341 1235.14 741.927 1277.58 759.405 C 1308.47 772.122 1328.91 795.484 1341.55 825.949 C 1344.33 836.185 1346.46 846.386 1348.41 856.805 C 1344.86 855.405 1336.13 841.898 1332.27 837.942 C 1309.69 814.754 1274.37 802.763 1242.53 802.155 C 1197.9 797.986 1150.24 811.982 1115.62 840.797 C 1082.55 868.835 1061.97 908.858 1058.39 952.068 C 1058.04 956.018 1058.5 963.625 1056.01 966.533 L 1055.27 966.565 z"/>
  <path transform="translate(0,0)" fill="rgb(0,133,103)" d="M 1055.27 966.565 L 1056.01 966.533 C 1058.5 963.625 1058.04 956.018 1058.39 952.068 C 1061.97 908.858 1082.55 868.835 1115.62 840.797 C 1150.24 811.982 1197.9 797.986 1242.53 802.155 C 1222.14 805.427 1202.13 811.688 1189.54 829.262 C 1184.63 836.117 1181.24 843.887 1177.75 851.523 C 1148.27 860.327 1125.83 875.19 1111.14 902.9 C 1108.6 907.681 1105.82 912.69 1103.99 917.783 C 1096.62 937.558 1094.91 957.215 1098.35 978.054 C 1100.86 993.24 1105.49 1007.94 1110.84 1022.34 C 1126.67 1064.85 1162.12 1135.64 1102.06 1162.55 C 1074.04 1175.11 1064.37 1165.01 1033.91 1188.22 L 1033.99 1139.62 C 1050.43 1131.49 1059.7 1135.04 1076.35 1134.11 C 1083.09 1133.73 1089.6 1131.78 1094.17 1126.58 C 1098.55 1121.6 1100.57 1114.85 1101.45 1108.4 C 1105.89 1075.71 1075.71 1058.56 1064.8 1031.38 C 1056.39 1010.43 1056.25 988.782 1055.27 966.565 z"/>
  <path transform="translate(0,0)" fill="rgb(254,189,33)" d="M 1034.07 1374.77 C 1059.1 1374.28 1084.19 1379.34 1102.84 1397.23 C 1115.78 1409.63 1121.47 1426.4 1121.75 1444.02 C 1122.01 1460.79 1116.69 1478.08 1104.89 1490.37 C 1101.8 1493.59 1098.34 1496.51 1095.08 1499.56 C 1074.34 1510.57 1056.29 1514.85 1033.96 1520.56 L 1034.07 1374.77 z"/>
  <path transform="translate(0,0)" fill="rgb(11,11,10)" d="M 1177.75 851.523 C 1211.66 846.369 1244.38 852.578 1272.37 873.031 C 1287.82 884.32 1301.8 899.016 1310.16 916.353 C 1286.76 909.879 1266.2 897.538 1245.04 885.983 C 1247.18 900.873 1245.94 915.048 1236.63 927.544 C 1229.8 936.716 1219.68 942.869 1208.26 944.092 C 1197.73 945.219 1187.12 942.374 1178.86 935.678 C 1168.85 927.569 1163.91 915.278 1162.99 902.667 C 1162.59 897.192 1163.14 891.35 1164.03 885.951 C 1143.37 895.52 1134.32 904.398 1117 918.015 C 1112.67 917.991 1108.32 918.051 1103.99 917.783 C 1105.82 912.69 1108.6 907.681 1111.14 902.9 C 1125.83 875.19 1148.27 860.327 1177.75 851.523 z"/>
  <path transform="translate(0,0)" fill="rgb(245,106,20)" d="M 1034.01 1242.92 C 1042.13 1236.52 1049.22 1233.88 1059.71 1235.02 C 1067.42 1235.85 1075.07 1238.66 1082.46 1240.89 C 1102.5 1246.93 1121.27 1250.86 1142.3 1248.38 C 1145.8 1247.97 1164.43 1243.09 1165.98 1243.43 C 1166.84 1243.62 1167.35 1244.54 1168.04 1245.1 C 1168.61 1249.17 1167.2 1251.67 1164.81 1254.93 C 1158.83 1263.07 1151.54 1268.31 1142.51 1272.63 C 1106.74 1281.94 1070.86 1283.97 1033.98 1281.74 L 1034.01 1242.92 z"/>
  <path transform="translate(0,0)" fill="rgb(254,189,33)" d="M 1033.98 1281.74 C 1070.86 1283.97 1106.74 1281.94 1142.51 1272.63 C 1127.56 1293.55 1112.35 1307.67 1089.8 1320.3 C 1071.55 1328.03 1053.98 1333.87 1033.98 1334.03 L 1033.98 1281.74 z"/>
  <path transform="translate(0,0)" fill="rgb(0,133,103)" d="M 1089.8 1320.3 C 1092.92 1322.65 1094.93 1324.25 1095.37 1328.45 C 1096.25 1336.83 1091.48 1347.5 1086.14 1353.62 C 1076.8 1364.33 1057.8 1373.28 1043.53 1373.89 C 1040.35 1374.03 1037.13 1373.92 1033.95 1373.85 L 1033.98 1334.03 C 1053.98 1333.87 1071.55 1328.03 1089.8 1320.3 z"/>
  <path transform="translate(0,0)" fill="rgb(254,149,14)" d="M 1317.47 1346.56 C 1319.52 1360.92 1318.21 1376.69 1318.27 1391.23 C 1318.34 1411.47 1319.09 1431.67 1319.66 1451.9 C 1324.11 1511.81 1346.36 1561.01 1391.99 1600.53 C 1399.93 1607.4 1408.43 1613.6 1416.86 1619.85 C 1329.97 1724.45 1214.88 1793.34 1078.5 1806.01 C 1063.71 1807.37 1048.86 1808.05 1034.01 1808.06 C 1033.99 1748.44 1034.77 1688.71 1033.91 1629.1 C 1033.1 1594.12 1034.18 1559.01 1033.78 1524.01 C 1045.38 1524 1057.71 1521.97 1069.19 1520.14 C 1096.78 1515.76 1123.81 1508.51 1148.96 1496.13 C 1205.86 1468.12 1280.26 1397.77 1317.47 1346.56 z"/>
  <path transform="translate(0,0)" fill="rgb(1,69,137)" d="M 1317.47 1346.56 C 1319.52 1360.92 1318.21 1376.69 1318.27 1391.23 C 1318.34 1411.47 1319.09 1431.67 1319.66 1451.9 L 1318.92 1453 C 1306.09 1472.28 1295.14 1493.26 1282.86 1512.99 C 1252.37 1561.97 1218.55 1607.47 1176.82 1647.53 C 1167.9 1656.09 1158.63 1665.14 1148.76 1672.58 C 1116.6 1647.2 1074.75 1631.86 1033.91 1629.1 C 1033.1 1594.12 1034.18 1559.01 1033.78 1524.01 C 1045.38 1524 1057.71 1521.97 1069.19 1520.14 C 1096.78 1515.76 1123.81 1508.51 1148.96 1496.13 C 1205.86 1468.12 1280.26 1397.77 1317.47 1346.56 z"/>
  <path transform="translate(0,0)" fill="rgb(78,187,78)" d="M 1273.15 342.247 C 1337.95 348.181 1390.77 372.445 1432.92 423.139 C 1495.75 498.717 1512.07 608.937 1502.8 704.024 C 1498.51 748.081 1488.12 792.42 1474.11 834.363 C 1445.8 848.988 1431.35 874.048 1421.91 903.842 C 1419.3 912.086 1417.76 920.509 1415.39 928.775 C 1412.91 920.818 1414.18 907.927 1413.77 899.401 C 1413.04 884.189 1412.04 869.065 1410.06 853.959 C 1400.07 778.079 1381.49 705.15 1352.37 634.294 C 1345.27 617.011 1338.03 598.776 1328.56 582.652 C 1328.5 582.487 1328.46 582.319 1328.39 582.158 C 1307.8 532.733 1273.14 498.173 1223.85 478.301 C 1232.61 470.702 1240.65 462.915 1247.54 453.546 C 1270.88 421.831 1278.93 380.848 1273.15 342.247 z"/>
  <path transform="translate(0,0)" fill="rgb(254,189,33)" d="M 1474.11 834.363 C 1484.83 832.12 1495.16 832.006 1504.78 838.124 C 1516.88 845.821 1522.14 860.239 1524.86 873.674 C 1539.26 945.033 1511.74 1043.24 1471.42 1103.41 C 1457.37 1124.38 1441.06 1141.55 1415.33 1146.35 C 1407.54 1147.86 1399.57 1148.13 1391.71 1147.17 C 1392.65 1137.76 1395.06 1128.09 1396.75 1118.76 C 1400.44 1099.23 1403.7 1079.62 1406.53 1059.95 C 1410.11 1034.3 1412.62 1008.51 1414.03 982.654 C 1414.88 964.694 1414.57 946.727 1415.39 928.775 C 1417.76 920.509 1419.3 912.086 1421.91 903.842 C 1431.35 874.048 1445.8 848.988 1474.11 834.363 z"/>
  <path transform="translate(0,0)" fill="rgb(245,106,20)" d="M 1485.85 878.003 C 1486.05 878.025 1486.26 878.04 1486.46 878.071 C 1492.28 878.935 1496.89 881.363 1500.21 886.352 C 1509.06 899.645 1504.75 958.127 1501.42 974.25 C 1494.07 1009.74 1478.45 1048.38 1446.81 1069.08 C 1442.4 1067.79 1438.37 1065.63 1434.25 1063.63 C 1436.73 1055.12 1441.16 1047.09 1444.35 1038.8 C 1449.91 1024.38 1455.46 1000.44 1452.43 985.369 C 1450.88 977.7 1447.59 970.451 1445.41 962.957 C 1439.67 943.149 1453.52 916.019 1462.98 898.842 C 1468.5 888.813 1474.47 881.244 1485.85 878.003 z"/>
  <path transform="translate(0,0)" fill="rgb(187,185,185)" d="M 992.049 483.596 L 992.022 1144.9 L 992.02 1183.4 L 992.072 1245.6 C 984.572 1243.36 977.304 1241.06 969.432 1240.62 C 955.859 1239.88 942.328 1245.2 929.281 1248.28 C 919.764 1250.52 910.045 1251.79 900.273 1252.06 C 888.304 1252.35 865.809 1245.34 857.594 1249.39 C 853.276 1251.52 850.858 1255.85 849.7 1260.37 C 848.962 1263.25 848.116 1266.55 849.239 1269.4 C 853.146 1271.78 871.746 1270.17 877.796 1270.64 C 890.03 1271.59 902.435 1273.92 914.635 1275.42 C 940.237 1278.57 966.26 1281.24 992.055 1282.03 L 992.05 1333.06 L 992.098 1375.51 L 992.163 1519.94 C 978.062 1518.87 963.947 1517.56 950.045 1514.89 C 929.024 1510.95 908.645 1504.14 889.483 1494.64 C 825.121 1462.69 758.805 1395.94 718.56 1336.58 C 702.999 1313.62 688.988 1289.38 679.337 1263.3 C 666.304 1228.09 660.616 1189.59 652.488 1152.97 C 634.515 1072 607.822 990.525 619.131 906.579 C 623.839 871.635 639.4 842.145 650.941 809.446 C 656.084 794.542 659.878 779.207 662.277 763.625 C 666.838 734.911 667.304 705.568 668.364 676.572 C 669.004 659.085 669.199 641.331 672.613 624.111 C 680.018 586.763 702.446 554.168 741.829 547.229 C 760.34 543.967 779.763 545.295 798.491 544.876 C 823.833 544.31 849.691 542.404 874.575 537.391 C 918.706 528.501 955.043 508.132 992.049 483.596 z"/>
  <path transform="translate(0,0)" fill="rgb(83,83,83)" d="M 992.02 1183.4 C 982.32 1177.25 972.238 1170.08 961.173 1166.66 C 943.347 1161.14 925.71 1167.7 910.358 1153.64 C 900.874 1144.96 896.521 1131.45 896.101 1118.83 C 895.557 1102.47 903.041 1090.95 913.901 1079.68 C 909.142 1090.28 907.542 1100.69 910.179 1112.21 C 917.175 1142.78 937.589 1125.67 955.521 1128.21 C 968.558 1130.06 981.059 1138.12 992.022 1144.9 L 992.02 1183.4 z"/>
  <path transform="translate(0,0)" fill="rgb(118,117,117)" d="M 992.098 1375.51 C 978.281 1374.52 965.086 1372.09 953.638 1363.75 C 946.131 1358.28 935.287 1346.3 934.374 1336.63 C 934.046 1333.15 934.975 1330.15 937.264 1327.54 C 938.2 1327.17 939.071 1326.53 940.073 1326.43 C 944.219 1326.01 962.021 1331.24 967.552 1332.06 C 975.731 1333.27 983.802 1333.23 992.05 1333.06 L 992.098 1375.51 z"/>
  <path transform="translate(0,0)" fill="rgb(11,11,10)" d="M 678.218 847.645 C 691.731 813.71 711.155 785.252 745.775 770.521 C 787.816 752.631 843.591 762.394 884.468 779.15 C 902.107 786.38 923.497 797.708 931.577 816.092 C 933.115 819.591 933.265 822.859 933.256 826.631 C 963.776 873.853 958.007 907.066 959.736 960.112 C 953.465 933.376 938.476 917.375 915.429 903.147 C 913.055 901.681 910.771 900.137 908.12 899.217 C 902.944 895.999 898.245 888.167 893.431 883.87 C 875.518 867.878 853.995 860.085 830.904 855.114 C 830.606 853.856 830.022 852.533 829.526 851.346 C 817.182 821.778 798.56 821.02 772.574 810.23 L 771.809 809.905 C 736.296 810.237 705.448 825.496 678.218 847.645 z"/>
  <path transform="translate(0,0)" fill="rgb(118,117,117)" d="M 771.809 809.905 C 799.21 804.771 849.092 818.967 876.917 826.07 C 888.446 829.012 900.282 832.701 912.17 833.692 C 917.911 834.171 928.154 834.888 931.812 829.263 C 932.412 828.34 932.723 827.659 933.256 826.631 C 963.776 873.853 958.007 907.066 959.736 960.112 C 953.465 933.376 938.476 917.375 915.429 903.147 C 913.055 901.681 910.771 900.137 908.12 899.217 C 902.944 895.999 898.245 888.167 893.431 883.87 C 875.518 867.878 853.995 860.085 830.904 855.114 C 830.606 853.856 830.022 852.533 829.526 851.346 C 817.182 821.778 798.56 821.02 772.574 810.23 L 771.809 809.905 z"/>
  <path transform="translate(0,0)" fill="rgb(11,11,10)" d="M 703 927.879 C 711.934 914.066 721.893 901.472 734.003 890.286 C 761.703 864.702 793.467 853.668 830.904 855.114 C 853.995 860.085 875.518 867.878 893.431 883.87 C 898.245 888.167 902.944 895.999 908.12 899.217 C 912.344 905.349 916.797 910.846 918.185 918.32 C 917.729 919.637 917.775 920.656 916.436 921.348 C 910.742 924.289 896.012 919.201 889.899 917.196 C 881.386 907.009 873.631 900.297 861.804 894.086 C 861.939 897.933 862.009 901.765 861.844 905.612 C 861.333 917.558 856.56 929.032 847.444 936.954 C 838.604 944.634 827.07 947.738 815.501 946.479 C 803.855 945.211 792.918 939.626 785.627 930.357 C 776.715 919.026 775.137 905.494 776.911 891.673 C 745.734 907.491 740.333 920.313 703 927.879 z"/>
  <path transform="translate(0,0)" fill="rgb(39,39,39)" d="M 975.811 211.576 C 1002.89 209.17 1030.93 211.57 1058.01 213.174 C 1058.18 236.261 1058 259.391 1054.57 282.277 C 1043.37 357.12 1006.47 404.757 946.981 448.142 C 878.447 498.122 796.116 498.961 715.726 486.46 C 721.842 491.247 727.979 495.564 734.721 499.429 C 601.179 525.444 651.842 628.295 541.177 671.883 C 545.084 675.77 549.03 679.747 553.663 682.771 C 571.208 694.226 590.26 693.659 609.858 689.267 C 604.737 709.194 595.816 727.266 584.735 744.531 L 584.222 745.3 C 568.196 768.899 539.456 795.507 510.545 800.926 C 484.49 775.582 469.226 712.643 467.114 677.102 C 463.939 623.634 473.768 582.655 507.169 540.44 C 514.628 531.013 527.468 519.907 532.191 509.207 C 536.276 499.948 536.229 489.027 538.462 479.2 C 545.667 447.49 560.329 417.021 582.103 392.773 C 609.082 362.73 641.29 348.869 678.901 336.809 C 691.658 332.718 705.224 328.96 717.107 322.687 C 734.4 313.559 756.57 289.827 773.508 277.003 C 834.56 230.78 900.741 215.258 975.811 211.576 z"/>
  <path transform="translate(0,0)" fill="rgb(187,185,185)" d="M 714.143 1384.49 C 720.489 1388.01 744.684 1423.43 750.921 1431.55 C 815.305 1515.4 888.725 1590.2 992.097 1622.04 L 992.176 1805.54 C 966.169 1803.45 940.762 1800.08 915.212 1794.77 C 805.641 1771.18 692.271 1705.94 627.178 1613.17 C 635.314 1608.01 642.866 1601.8 649.886 1595.23 C 713.813 1535.32 711.75 1464.65 714.143 1384.49 z"/>
  <path transform="translate(0,0)" fill="rgb(10,102,193)" d="M 1107.83 231.134 C 1144.99 238.166 1185.35 248.034 1218.1 267.46 C 1248.17 285.294 1264.57 308.69 1273.15 342.247 C 1278.93 380.848 1270.88 421.831 1247.54 453.546 C 1240.65 462.915 1232.61 470.702 1223.85 478.301 C 1212.4 486.048 1200.99 493.378 1188.41 499.21 C 1142.63 520.431 1084.02 529.103 1033.91 521.006 C 1033.74 493.29 1033.77 465.573 1034.01 437.858 C 1073.78 392.585 1101.14 339.472 1106.98 278.801 C 1108.51 262.923 1108.09 247.057 1107.83 231.134 z"/>
  <path transform="translate(0,0)" fill="rgb(187,185,185)" d="M 518.237 859.169 C 529.523 858.156 539.263 861.006 548.768 867.122 C 562.987 876.272 575.876 892.194 581.148 908.339 C 585.715 922.327 583.811 937.937 584.592 952.447 C 585.349 965.139 586.722 977.787 588.706 990.346 C 596.722 1043.74 609.558 1096.44 620.771 1149.23 C 611.952 1149.8 603.698 1149.06 595.043 1147.41 C 593.413 1146.84 591.808 1146.27 590.21 1145.62 C 554.616 1131.07 532.678 1091.59 518.382 1058 C 498.416 1011.08 478.559 927.323 498.072 879.721 C 502.346 869.294 507.899 863.421 518.237 859.169 z"/>
  <path transform="translate(0,0)" fill="rgb(83,83,83)" d="M 526.117 899.649 C 529.822 900.495 532.407 901.62 535.406 904.002 C 552.393 917.495 575.219 954.479 573.585 976.824 C 572.553 990.941 567.207 1003.25 569.071 1017.83 C 571.483 1036.69 580.237 1059.17 595.941 1070.75 L 596.965 1071.49 L 597.159 1072.72 L 593.741 1074.58 C 590.148 1074.68 586.532 1074.79 582.995 1074.05 C 571.399 1071.63 562.59 1063.02 556.519 1053.26 C 540.265 1027.13 539.931 995.311 530.148 966.949 C 526.346 955.926 518.895 946.446 516.06 934.99 C 514.37 928.161 513.823 919.641 515.633 912.752 C 517.304 906.387 520.581 902.942 526.117 899.649 z"/>
</svg>